<svg xmlns="http://www.w3.org/2000/svg" viewBox="0 0 59.53 39.68"><defs><style>.cls-1{fill:#fff}</style></defs><g id="Layer_2" data-name="Layer 2"><g id="Layer_1-2" data-name="Layer 1"><path class="cls-1" d="M59.53 0H0v39.69l59.53-.02V0z"/><path d="M59 .53v38.63H.52V.53H59"/><path class="cls-1" d="M2.58 11.32h54.37v19.55H2.58zM2.58 2.62h54.34v6.63H2.58zM2.6 37.13v-4.11h5.35v.96h-3.2v.59h2.71v.96H4.75v.64h3.32v.96H2.6zM12.62 34.22a.41.41 0 0 0-.31-.28 1.77 1.77 0 0 0-.55-.08c-.48 0-.69.09-.69.24 0 .61 3.78.23 3.78 1.73 0 1-1.27 1.41-3.07 1.41s-2.87-.63-2.91-1.37h2.06a.54.54 0 0 0 .35.32 1.75 1.75 0 0 0 .62.1c.53 0 .89-.11.89-.3 0-.62-3.78-.19-3.78-1.76 0-.87 1.21-1.31 2.85-1.31 1.82 0 2.65.58 2.81 1.3zM18.07 34.8h.85c.66 0 1-.1 1-.39s-.36-.43-.87-.43h-1zm0 .9v1.43h-2.15V33H19c2.19 0 2.91.38 2.91 1.18 0 .47-.34.87-1.1 1 .69.16 1.11.26 1.11 1.09 0 .53 0 .71.23.71v.13H20a1.86 1.86 0 0 1-.1-.72c0-.54-.15-.71-1.15-.71zM25.4 34v.69h.9c.43 0 .74-.12.74-.36s-.43-.33-.88-.33zm0 1.44v.75h.94c.53 0 .93-.07.93-.37s-.5-.38-1.19-.38zm-2.15 1.71V33h3.14c1.48 0 2.65.23 2.65 1 0 .42-.44.73-.85.89.71.12 1.09.5 1.09.94 0 .92-1.12 1.24-2.83 1.24z"/><path d="M31.43 21.42l-.55-1.94-3.59.92.55 1.94 3.59-.92zM41.64 26h-.81v.45h.81v.78h.45v-.78h.82V26h-.82v-.78h-.45zm-1.29-.19a2.3 2.3 0 1 0-4.58 0 2.3 2.3 0 1 0 4.58 0m-7.89-9.93l11.39-3.4 1.15 3.6-5.71 1.7.47 1.47L45 17.68l1.14 3.6-5.24 1.56.49 1.56 5.9-1.76 1.14 3.6-11.58 3.44-4.39-13.8m.43 9.12a3.62 3.62 0 0 0 1.42-.68v3.77h1.07v-4.75h-1a3.86 3.86 0 0 1-1.45.72V25"/><path d="M36.75 25.76c0-1.58.63-1.94 1.35-1.94s1.26.6 1.26 2c0 .86-.24 1.92-1.27 1.91s-1.35-.81-1.34-2M10.75 15.88l11.4-3.39 1.14 3.59-5.71 1.7.47 1.47 5.27-1.57 1.14 3.6-5.27 1.57.49 1.54 5.9-1.75 1.14 3.59-11.58 3.45-4.39-13.8M3.36 8.21V3.49h1.56v.72H4v1.17h.88v.72H4v1.38h1v.73zM5.11 3.49h.63l.44 3.43.5-3.43h.59l-.75 4.72h-.7zM7.55 8.21V3.49h1.56v.72h-1v1.17H9v.72h-.85v1.38h1v.73zM10.12 8.21h-.6V3.49h1.11a.54.54 0 0 1 .49.31 1.9 1.9 0 0 1 .18.92 2.18 2.18 0 0 1-.12.77.59.59 0 0 1-.41.39h.13a.47.47 0 0 1 .18.12 1.08 1.08 0 0 1 .15.27 1.66 1.66 0 0 1 .06.5V7.9a1.09 1.09 0 0 0 0 .26h-.59a1.74 1.74 0 0 1-.06-.45v-.42-.4a1.15 1.15 0 0 0 0-.33.4.4 0 0 0-.12-.22.36.36 0 0 0-.26-.09h-.16zm0-2.68h.27a.15.15 0 0 0 .14-.07.32.32 0 0 0 .1-.17 1.19 1.19 0 0 0 0-.22 1.93 1.93 0 0 0 0-.24 1 1 0 0 0-.08-.48.25.25 0 0 0-.22-.14h-.27zM12.21 6.57l-.75-3.08h.66l.42 2 .46-2h.61l-.8 3.08v1.64h-.6zM14.85 8.29a.74.74 0 0 1-.57-.21 1.16 1.16 0 0 1-.28-.55 3.06 3.06 0 0 1-.11-.78v-.9-.91a3.06 3.06 0 0 1 .11-.78 1.13 1.13 0 0 1 .29-.54.88.88 0 0 1 1.14 0 1.14 1.14 0 0 1 .3.54 3.6 3.6 0 0 1 .1.78v1.81a3.6 3.6 0 0 1-.1.78 1.17 1.17 0 0 1-.3.55.74.74 0 0 1-.58.21zm0-.71a.26.26 0 0 0 .2-.1.83.83 0 0 0 .12-.31c0-.14 0-.32.05-.54s0-.48 0-.78v-.78c0-.22 0-.4-.05-.54a.83.83 0 0 0-.12-.31.25.25 0 0 0-.4 0 .83.83 0 0 0-.12.31v2.64a.83.83 0 0 0 .12.31.26.26 0 0 0 .2.1zM16.32 8.21V3.49h.81l.76 3.27V3.49h.56v4.72h-.79l-.78-3.45v3.45zM19 8.21V3.49h1.57v.72h-1v1.17h.89v.72h-.89v1.38h1v.73zM21.58 4.91h.22v-.53l.56-.38v.94h.29v.56h-.29v2.04a.16.16 0 0 0 .06.08.15.15 0 0 0 .1 0h.1v.57H22.33a.44.44 0 0 1-.29-.09.45.45 0 0 1-.14-.1.75.75 0 0 1-.08-.24 1.91 1.91 0 0 1 0-.2v-2h-.22zM23.68 8.27a.68.68 0 0 1-.44-.13.85.85 0 0 1-.24-.36 2.12 2.12 0 0 1-.12-.56v-.71-.64a2 2 0 0 1 .12-.53.9.9 0 0 1 .24-.34.7.7 0 0 1 .44-.13.74.74 0 0 1 .44.13.8.8 0 0 1 .24.37 1.66 1.66 0 0 1 .11.53v1.35a2.14 2.14 0 0 1-.11.56.86.86 0 0 1-.25.36.65.65 0 0 1-.43.1zm0-.59a.13.13 0 0 0 .12 0 .3.3 0 0 0 .08-.18 1.66 1.66 0 0 0 0-.37V6v-.32a.64.64 0 0 0-.08-.2.18.18 0 0 0-.14-.06.17.17 0 0 0-.14.06.46.46 0 0 0-.08.2 2.13 2.13 0 0 0 0 .32v1.07a2.6 2.6 0 0 0 0 .37.3.3 0 0 0 .08.18.14.14 0 0 0 .16.06zM25.8 8.21V3.49h1.56v.72h-1v1.17h.89v.72h-.85v1.38h1v.73zM27.56 3.49h.62l.44 3.43.5-3.43h.59L29 8.21h-.7zM30 8.21V3.49h1.57v.72h-1v1.17h.89v.72h-.89v1.38h1v.73zM32.57 8.21H32V3.49h1.1a.54.54 0 0 1 .49.31 1.89 1.89 0 0 1 .19.92 2.17 2.17 0 0 1-.13.77.57.57 0 0 1-.41.39h.14a.44.44 0 0 1 .17.12.68.68 0 0 1 .15.27 1.66 1.66 0 0 1 .06.5v1.39h-.59a1.74 1.74 0 0 1-.06-.45v-.82a1.66 1.66 0 0 0 0-.33.48.48 0 0 0-.11-.22.36.36 0 0 0-.26-.09h-.15zm0-2.68h.26a.18.18 0 0 0 .17-.07.39.39 0 0 0 .09-.17.71.71 0 0 0 0-.22 1.94 1.94 0 0 0 0-.24 1.12 1.12 0 0 0-.08-.48.27.27 0 0 0-.23-.14h-.26zM34.65 6.57l-.75-3.08h.66l.43 2 .45-2h.62l-.81 3.08v1.64h-.6zM37.29 8.29a.77.77 0 0 1-.57-.21 1.26 1.26 0 0 1-.29-.55 3.57 3.57 0 0 1-.11-.78v-.9-.91a3.57 3.57 0 0 1 .11-.78 1.22 1.22 0 0 1 .29-.54.77.77 0 0 1 .57-.21.78.78 0 0 1 .58.21 1.22 1.22 0 0 1 .29.54 3.57 3.57 0 0 1 .11.78v1.81a3.57 3.57 0 0 1-.11.78 1.26 1.26 0 0 1-.29.55.78.78 0 0 1-.58.21zm0-.71a.27.27 0 0 0 .21-.1.7.7 0 0 0 .11-.31 2.61 2.61 0 0 0 0-.54v-.78-.78a2.61 2.61 0 0 0 0-.54.7.7 0 0 0-.11-.31.24.24 0 0 0-.21-.1.23.23 0 0 0-.2.1.7.7 0 0 0-.11.31 2.61 2.61 0 0 0 0 .54v1.56a2.61 2.61 0 0 0 0 .54.7.7 0 0 0 .11.31.26.26 0 0 0 .2.1zM38.76 8.21V3.49h.81l.77 3.27V3.49h.56v4.72h-.79l-.78-3.45v3.45zM41.41 8.21V3.49H43v.72h-1v1.17h.89v.72H42v1.38h1v.73zM44.22 4.35a2.16 2.16 0 0 0 .29-.35 1.84 1.84 0 0 0 .24-.39h.54v4.6h-.6V4.7a2 2 0 0 1-.23.27l-.24.24zM46.67 3.59a.71.71 0 0 1 .41.11.75.75 0 0 1 .25.4 3.67 3.67 0 0 1 .11.71v2.1a3.58 3.58 0 0 1-.1.74 1.2 1.2 0 0 1-.24.48.6.6 0 0 1-.44.16.57.57 0 0 1-.44-.16 1 1 0 0 1-.22-.51 3 3 0 0 1-.1-.74v-1-1.1a3 3 0 0 1 .1-.68.8.8 0 0 1 .24-.4.77.77 0 0 1 .43-.11zm0 .66a.17.17 0 0 0-.14.07.49.49 0 0 0-.07.24 3.3 3.3 0 0 0 0 .51v2.21a.73.73 0 0 0 .08.25.14.14 0 0 0 .13.07.15.15 0 0 0 .13-.07.58.58 0 0 0 .07-.25 3.3 3.3 0 0 0 0-.51v-1.7-.51a.63.63 0 0 0-.07-.24.19.19 0 0 0-.13-.07zM48.32 4.41h.44v1.28h.68v.73h-.68v1.29h-.44V6.42h-.67v-.73h.67z"/><path class="cls-1" d="M35.79 37.22a1.15 1.15 0 0 1-1-.42 2 2 0 0 1-.4-1.32 2.11 2.11 0 0 1 .4-1.35 1.09 1.09 0 0 1 .88-.43 1.15 1.15 0 0 1 .95.44 2.45 2.45 0 0 1 .38 1.47v.15h-1.74a.94.94 0 0 0 .16.52.47.47 0 0 0 .37.19c.21 0 .34-.14.41-.43l.81.16v.05a1.46 1.46 0 0 1-.45.76 1.24 1.24 0 0 1-.77.21zm-.52-2.09h1a1 1 0 0 0-.16-.5.41.41 0 0 0-.32-.17.41.41 0 0 0-.34.18.86.86 0 0 0-.18.49zM38.92 37.22A1.4 1.4 0 0 1 38 37a1.28 1.28 0 0 1-.45-.78v-.05h.05l.76-.14V36a.49.49 0 0 0 .52.47.69.69 0 0 0 .36-.08.27.27 0 0 0 .1-.22.21.21 0 0 0 0-.14.61.61 0 0 0-.21-.09 3.23 3.23 0 0 1-1.13-.43 1 1 0 0 1-.31-.76A1 1 0 0 1 38 34a1.24 1.24 0 0 1 .88-.29 1.39 1.39 0 0 1 .83.21 1.18 1.18 0 0 1 .4.69l-.77.17a.43.43 0 0 0-.46-.35.57.57 0 0 0-.34.07.18.18 0 0 0-.09.15.15.15 0 0 0 .08.14 2.89 2.89 0 0 0 .61.22 1.72 1.72 0 0 1 .84.42 1 1 0 0 1 .22.66 1.12 1.12 0 0 1-.34.82 1.34 1.34 0 0 1-.94.31zM41.82 37.14H41v-3.36h.76v.32a1 1 0 0 1 .22-.28.52.52 0 0 1 .34-.12.83.83 0 0 1 .49.17l-.25.86h-.06a.38.38 0 0 0-.53 0 .73.73 0 0 0-.14.37 6.28 6.28 0 0 0 0 1zM44.88 37.22a.9.9 0 0 1-.48-.15 1.22 1.22 0 0 1-.31-.29v.36h-.76v-4.6h.82v1.52a1.05 1.05 0 0 1 .28-.24.89.89 0 0 1 .45-.12 1 1 0 0 1 .84.45 2.11 2.11 0 0 1 .34 1.29 2.17 2.17 0 0 1-.35 1.31 1 1 0 0 1-.83.47zm-.2-2.76a.46.46 0 0 0-.38.22 1.22 1.22 0 0 0-.16.71 1.94 1.94 0 0 0 .08.62.69.69 0 0 0 .21.32.44.44 0 0 0 .28.1.42.42 0 0 0 .36-.22 1.39 1.39 0 0 0 .16-.75 1.45 1.45 0 0 0-.16-.77.44.44 0 0 0-.39-.23zM47.66 37.14h-.81v-1h.81zM49.88 37.22a1.3 1.3 0 0 1-1-.48 2.24 2.24 0 0 1-.21-2.22 1.51 1.51 0 0 1 .51-.62 1.4 1.4 0 0 1 .73-.2 1.26 1.26 0 0 1 1.06.53 2 2 0 0 1 .37 1.21 2.15 2.15 0 0 1-.19.93 1.45 1.45 0 0 1-.53.63 1.19 1.19 0 0 1-.74.22zm0-2.72a.52.52 0 0 0-.42.24 1.53 1.53 0 0 0 0 1.44.52.52 0 0 0 .43.23.51.51 0 0 0 .43-.23 1.23 1.23 0 0 0 .18-.73 1.18 1.18 0 0 0-.19-.71.52.52 0 0 0-.44-.24zM52.87 37.14h-.81v-3.36h.76v.32a1 1 0 0 1 .22-.28.52.52 0 0 1 .34-.12.86.86 0 0 1 .5.17l-.26.86c-.21-.16-.39-.16-.53 0a.64.64 0 0 0-.15.37 7.67 7.67 0 0 0-.05 1zM55.66 38.46a1.85 1.85 0 0 1-.73-.12.87.87 0 0 1-.43-.34 1 1 0 0 1-.15-.56v-.16h.06l.85.13a.3.3 0 0 0 .09.22.49.49 0 0 0 .27.06.73.73 0 0 0 .35-.07.28.28 0 0 0 .14-.16 1.34 1.34 0 0 0 .05-.43v-.31a1.42 1.42 0 0 1-.28.27.86.86 0 0 1-.47.14 1 1 0 0 1-.8-.42 2.09 2.09 0 0 1-.36-1.28 2.11 2.11 0 0 1 .34-1.29 1 1 0 0 1 .85-.45.9.9 0 0 1 .48.14 1.27 1.27 0 0 1 .29.28v-.34H57v3a2.91 2.91 0 0 1-.13 1 1.06 1.06 0 0 1-.42.51 1.55 1.55 0 0 1-.79.18zm0-4a.44.44 0 0 0-.38.22 1.22 1.22 0 0 0-.16.71 1.25 1.25 0 0 0 .16.73.42.42 0 0 0 .36.22.47.47 0 0 0 .4-.22 1.14 1.14 0 0 0 .17-.71 1.3 1.3 0 0 0-.16-.73.47.47 0 0 0-.42-.22z"/></g></g></svg>