<svg height="100" viewBox="0 0 100 100" width="100" xmlns="http://www.w3.org/2000/svg"><g fill="none" fill-rule="evenodd"><path d="m0 100h100v-100h-100z" fill="#e60012"/><path d="m70.5563475 70.0421251h-1.2306939v-3.242874h1.2306939c.9012212 0 1.6344866.7269643 1.6344866 1.6210721 0 .8942902-.7332654 1.6218019-1.6344866 1.6218019zm-.0572116-4.4185344h-2.3316958v5.5938299h2.3316958c1.5989823 0 2.899581-1.2546704 2.899581-2.7970974 0-1.5420622-1.3005987-2.7967325-2.899581-2.7967325zm-4.3203058 10.4568636c1.2014442 0 2.321578.6357288 2.9211043 1.6384068l1.7314337-1.4933424c-1.059243-1.5639587-2.8092566-2.4923709-4.7145326-2.4923709-3.1317389 0-5.6799559 2.5270404-5.6799559 5.6336086 0 3.1060207 2.548217 5.6332436 5.6799559 5.6332436 1.905276 0 3.6552896-.9285947 4.7145326-2.4923709l-1.7314337-1.4931599c-.5995263 1.0026779-1.720028 1.6384068-2.9211043 1.6384068-1.8611256 0-3.3754862-1.474183-3.3754862-3.2861196 0-1.8121192 1.5143606-3.2863021 3.3754862-3.2863021zm-16.4114595.2375772h3.4005048v8.3150194h2.289201v-8.3150194h3.3237933v-2.2398311h-9.0134991zm30.667089 1.9199595h-4.9698694v-4.1597906h-2.2007161v10.5548505h2.2007161v-4.2103351h4.9698694v4.2103351h2.2023718v-10.5548505h-2.2023718zm6.1262434 4.8243498-.3990097 1.1488372-.3988258-1.1488372h-.439297v1.5708926h.2831148v-1.2057682l.4135426 1.1915354.0049669.0142328h.2729969l.0051509-.0142328.4135426-1.1915354v1.2057682h.2831148v-1.5708926zm-6.5105363-12.9005148c-.966527 0-1.7524051-.7809757-1.7524051-1.7416853 0-.9596148.7858781-1.740773 1.7524051-1.740773.9661591 0 1.7520372.7811582 1.7520372 1.740773 0 .9607096-.7858781 1.7416853-1.7520372 1.7416853zm0-4.7265454c-1.6561939 0-3.0040704 1.3391544-3.0040704 2.985225 0 1.6462531 1.3478765 2.98559 3.0040704 2.98559s3.0037026-1.3393369 3.0037026-2.98559c0-1.6460706-1.3475087-2.985225-3.0037026-2.985225zm3.6282475 17.9279548h.4874946v1.269998h.3081334v-1.269998h.4757211v-.3008946h-1.2713491zm-30.0136623-13.181885h-3.2411951v-1.3117837h2.9972639v-1.011984h-2.9972639v-1.2070454h3.2411951v-1.0269466l-4.3856117.0018247v5.5920052l4.3856117-.0016423zm9.7313119 1.0360702v-5.5938299h-1.1444166v3.6744178l-2.7741201-3.6744178h-1.1388978v5.5938299h1.1433128v-3.7410197l2.8007944 3.7410197zm-37.6064366 0h1.2549767v-5.5938299h-1.2549767zm-4.8933419 7.0043305c-1.5375395-.2503502-2.5301889-.5329977-2.5301889-1.2431747 0-.820572 1.105417-1.1360643 2.5892401-1.1360643 1.3793338 0 2.7625307.5213196 3.256096.7269644l.7560765-1.8268993c-.5355082-.210754-2.2354846-.8127257-4.120525-.8127257-2.2991349 0-4.7424946 1.111978-4.7424946 3.1729876 0 1.671434 1.188567 2.5252157 4.2389954 3.0458053 2.150495.3667667 3.334831.5694919 3.3013502 1.4864085-.0189479.5050797-.4124388 1.3524748-2.8366666 1.3524748-1.9497945 0-3.3237934-.700871-3.8009862-.9857081l-1.0071822 1.8033605c.5369799.2799105 2.3379505 1.1178172 4.6552974 1.1178172 3.38542 0 5.1746171-1.1634349 5.1746171-3.3643997 0-1.2752896-.4341461-2.6040432-4.9336292-3.3368465zm16.8932512 3.5140258-2.2542485-7.6575765h-1.8883517l-2.2417393 7.6296584-2.0467414-7.6296584h-2.3164272l3.010693 10.5548505h2.5570471l1.984195-6.9539685 1.9709498 6.9539685h2.5675329l3.0272494-10.5548505h-2.3155073zm-5.3475397-14.259376 2.8004265 3.7410197h1.1133273v-5.5938299h-1.1444166v3.6744178l-2.7739362-3.6744178h-1.1390817v5.5938299h1.1436807zm12.3612072 17.15665h2.367936v-10.5548505h-2.367936zm.346949-19.0094602h-4.777263v1.1871561h1.8024422v4.4066738h1.2132177v-4.4066738h1.7616031zm-27.5272559 1.8528102 2.8009783 3.7410197h1.1131434v-5.5938299h-1.1442326v3.6744178l-2.7741202-3.6744178h-1.1390817v5.5938299h1.1433128zm16.5821745-40.0375968c0 2.3261399 1.9010449 4.2117948 4.2461699 4.2117948 2.3451249 0 4.2461698-1.8856549 4.2461698-4.2117948 0-2.3263223-1.9010449-4.2117948-4.2461698-4.2117948-2.345125 0-4.2461699 1.8854725-4.2461699 4.2117948zm11.1102777 27.7459876h-6.5613093c-2.1210614 0-4.1146383-.8187472-5.6137302-2.3060681-1.4996437-1.4865909-2.3250732-3.4640288-2.3250732-5.5686489v-21.8237099c0-2.1046201.8254295-4.082058 2.3243374-5.5681015 1.4992758-1.4875033 3.4934046-2.3066155 5.614466-2.3066155h6.5613093zm3.3096284-41.1847917h-9.8709377c-6.3953772 0-11.5799281 5.1425792-11.5799281 11.4861823v21.8237099c0 6.3437856 5.1845509 11.4861824 11.5799281 11.4861824h9.8709377c.1834083 0 .3313123-.1470716.3313123-.3284478v-44.139544c0-.1811937-.147904-.3280828-.3313123-.3280828zm13.7846914 20.1086653c2.5217267 0 4.5658927 2.0277999 4.5658927 4.5292943 0 2.501312-2.044166 4.5291118-4.5658927 4.5291118-2.5219107 0-4.5660767-2.0277998-4.5660767-4.5291118 0-2.5014944 2.044166-4.5292943 4.5660767-4.5292943zm-8.6038197 24.6874093h6.9500172c6.3953772 0 11.5799282-5.1423968 11.5799282-11.4861824v-21.8237099c0-6.3436031-5.184551-11.4861823-11.5799282-11.4861823h-6.9868092c-.1626209 0-.2941524.1302843-.2941524.2919535v44.1756733c0 .1813762.148088.3284478.3309444.3284478z" fill="#fff"/></g></svg>